<svg width="56" height="56" viewBox="0 0 56 56" fill="none" xmlns="http://www.w3.org/2000/svg">
<path fill-rule="evenodd" clip-rule="evenodd" d="M27.9997 56C43.42 56 56 43.4694 56 27.9997C56 12.5306 43.42 0 27.9997 0C12.5776 0 0 12.5776 0 27.9997C0 43.42 12.5776 56 27.9997 56ZM28.001 2.33333C42.1461 2.33333 53.6667 13.8558 53.6667 28.001C53.6667 42.1461 42.1461 53.6667 28.001 53.6667C13.8558 53.6667 2.33333 42.1461 2.33333 28.001C2.33333 13.8558 13.8558 2.33333 28.001 2.33333Z" fill="white"/>
<path fill-rule="evenodd" clip-rule="evenodd" d="M22.75 39.6667C22.75 39.6667 38.5 28.4383 38.5 27.9988C38.5 27.5613 22.75 16.3334 22.75 16.3334V39.6667Z" fill="white"/>
</svg>
